<?xml version="1.0" encoding="UTF-8" standalone="no"?>
<!DOCTYPE svg PUBLIC "-//W3C//DTD SVG 1.1//EN"
 "http://www.w3.org/Graphics/SVG/1.1/DTD/svg11.dtd">
<!-- Generated by graphviz version 2.43.0 (0)
 -->
<!-- Title: %3 Pages: 1 -->
<svg width="493pt" height="273pt"
 viewBox="0.00 0.00 492.63 273.00" xmlns="http://www.w3.org/2000/svg" xmlns:xlink="http://www.w3.org/1999/xlink">
<g id="graph0" class="graph" transform="scale(1 1) rotate(0) translate(4 269)">
<title>%3</title>
<polygon fill="white" stroke="transparent" points="-4,4 -4,-269 488.63,-269 488.63,4 -4,4"/>
<!-- n0 -->
<g id="node1" class="node">
<title>n0</title>
<polygon fill="none" stroke="black" points="460.68,-36 406.68,-36 406.68,0 460.68,0 460.68,-36"/>
<text text-anchor="middle" x="433.68" y="-13.8" font-family="Times,serif" font-size="14.00">server</text>
</g>
<!-- n1 -->
<g id="node2" class="node">
<title>n1</title>
<polygon fill="none" stroke="black" points="328.79,-36 219.97,-36 219.97,0 328.79,0 328.79,-36"/>
<text text-anchor="middle" x="274.38" y="-13.8" font-family="Times,serif" font-size="14.00">message handler</text>
</g>
<!-- n1&#45;&gt;n0 -->
<g id="edge1" class="edge">
<title>n1&#45;&gt;n0</title>
<path fill="none" stroke="black" d="M329.07,-18C351.25,-18 376.39,-18 396.34,-18"/>
<polygon fill="black" stroke="black" points="396.55,-21.5 406.55,-18 396.55,-14.5 396.55,-21.5"/>
</g>
<!-- n2 -->
<g id="node3" class="node">
<title>n2</title>
<polygon fill="none" stroke="black" points="155.86,-90 10.18,-90 10.18,-54 155.86,-54 155.86,-90"/>
<text text-anchor="middle" x="83.02" y="-67.8" font-family="Times,serif" font-size="14.00">update component data</text>
</g>
<!-- n2&#45;&gt;n1 -->
<g id="edge2" class="edge">
<title>n2&#45;&gt;n1</title>
<path fill="none" stroke="black" d="M147.34,-53.94C167.57,-48.17 189.96,-41.79 210.19,-36.02"/>
<polygon fill="black" stroke="black" points="211.27,-39.35 219.93,-33.24 209.35,-32.62 211.27,-39.35"/>
</g>
<!-- n3 -->
<g id="node4" class="node">
<title>n3</title>
<polygon fill="none" stroke="black" points="166.06,-36 -0.02,-36 -0.02,0 166.06,0 166.06,-36"/>
<text text-anchor="middle" x="83.02" y="-13.8" font-family="Times,serif" font-size="14.00">trigger component cascade</text>
</g>
<!-- n3&#45;&gt;n1 -->
<g id="edge3" class="edge">
<title>n3&#45;&gt;n1</title>
<path fill="none" stroke="black" d="M166.25,-18C180.73,-18 195.6,-18 209.48,-18"/>
<polygon fill="black" stroke="black" points="209.88,-21.5 219.88,-18 209.88,-14.5 209.88,-21.5"/>
</g>
<!-- pl1 -->
<g id="node5" class="node">
<title>pl1</title>
<polygon fill="none" stroke="black" points="468.43,-117 398.92,-117 398.92,-81 468.43,-81 468.43,-117"/>
<text text-anchor="middle" x="433.68" y="-94.8" font-family="Times,serif" font-size="14.00">player UI</text>
</g>
<!-- pl2 -->
<g id="node6" class="node">
<title>pl2</title>
<polygon fill="none" stroke="black" points="328.79,-157 219.97,-157 219.97,-121 328.79,-121 328.79,-157"/>
<text text-anchor="middle" x="274.38" y="-134.8" font-family="Times,serif" font-size="14.00">message handler</text>
</g>
<!-- pl2&#45;&gt;pl1 -->
<g id="edge4" class="edge">
<title>pl2&#45;&gt;pl1</title>
<path fill="none" stroke="black" d="M329.07,-125.35C348.6,-120.38 370.41,-114.83 388.97,-110.12"/>
<polygon fill="black" stroke="black" points="390.08,-113.44 398.9,-107.59 388.35,-106.66 390.08,-113.44"/>
</g>
<!-- pl3 -->
<g id="node7" class="node">
<title>pl3</title>
<polygon fill="none" stroke="black" points="156.14,-157 9.91,-157 9.91,-121 156.14,-121 156.14,-157"/>
<text text-anchor="middle" x="83.02" y="-134.8" font-family="Times,serif" font-size="14.00">accept component sync</text>
</g>
<!-- pl3&#45;&gt;pl2 -->
<g id="edge5" class="edge">
<title>pl3&#45;&gt;pl2</title>
<path fill="none" stroke="black" d="M156.15,-139C173.63,-139 192.21,-139 209.29,-139"/>
<polygon fill="black" stroke="black" points="209.71,-142.5 219.71,-139 209.71,-135.5 209.71,-142.5"/>
</g>
<!-- pl4 -->
<g id="node8" class="node">
<title>pl4</title>
<polygon fill="none" stroke="black" points="346.56,-103 202.2,-103 202.2,-67 346.56,-67 346.56,-103"/>
<text text-anchor="middle" x="274.38" y="-80.8" font-family="Times,serif" font-size="14.00">send message to server</text>
</g>
<!-- pl4&#45;&gt;pl1 -->
<g id="edge6" class="edge">
<title>pl4&#45;&gt;pl1</title>
<path fill="none" stroke="black" d="M346.67,-91.34C361.03,-92.62 375.73,-93.93 388.82,-95.1"/>
<polygon fill="black" stroke="black" points="388.66,-98.6 398.93,-96 389.28,-91.62 388.66,-98.6"/>
</g>
<!-- gm1 -->
<g id="node9" class="node">
<title>gm1</title>
<polygon fill="none" stroke="black" points="484.58,-238 382.77,-238 382.77,-202 484.58,-202 484.58,-238"/>
<text text-anchor="middle" x="433.68" y="-215.8" font-family="Times,serif" font-size="14.00">gamemaster UI</text>
</g>
<!-- gm2 -->
<g id="node10" class="node">
<title>gm2</title>
<polygon fill="none" stroke="black" points="328.79,-265 219.97,-265 219.97,-229 328.79,-229 328.79,-265"/>
<text text-anchor="middle" x="274.38" y="-242.8" font-family="Times,serif" font-size="14.00">message handler</text>
</g>
<!-- gm2&#45;&gt;gm1 -->
<g id="edge7" class="edge">
<title>gm2&#45;&gt;gm1</title>
<path fill="none" stroke="black" d="M329.07,-237.78C343.04,-235.39 358.17,-232.79 372.45,-230.34"/>
<polygon fill="black" stroke="black" points="373.4,-233.73 382.67,-228.58 372.22,-226.83 373.4,-233.73"/>
</g>
<!-- gm3 -->
<g id="node11" class="node">
<title>gm3</title>
<polygon fill="none" stroke="black" points="156.14,-265 9.91,-265 9.91,-229 156.14,-229 156.14,-265"/>
<text text-anchor="middle" x="83.02" y="-242.8" font-family="Times,serif" font-size="14.00">accept component sync</text>
</g>
<!-- gm3&#45;&gt;gm2 -->
<g id="edge8" class="edge">
<title>gm3&#45;&gt;gm2</title>
<path fill="none" stroke="black" d="M156.15,-247C173.63,-247 192.21,-247 209.29,-247"/>
<polygon fill="black" stroke="black" points="209.71,-250.5 219.71,-247 209.71,-243.5 209.71,-250.5"/>
</g>
<!-- gm4 -->
<g id="node12" class="node">
<title>gm4</title>
<polygon fill="none" stroke="black" points="346.56,-211 202.2,-211 202.2,-175 346.56,-175 346.56,-211"/>
<text text-anchor="middle" x="274.38" y="-188.8" font-family="Times,serif" font-size="14.00">send message to server</text>
</g>
<!-- gm4&#45;&gt;gm1 -->
<g id="edge9" class="edge">
<title>gm4&#45;&gt;gm1</title>
<path fill="none" stroke="black" d="M346.67,-205.24C355.22,-206.7 363.89,-208.19 372.27,-209.63"/>
<polygon fill="black" stroke="black" points="371.86,-213.11 382.31,-211.35 373.05,-206.21 371.86,-213.11"/>
</g>
</g>
</svg>
